<svg xmlns="http://www.w3.org/2000/svg" width="105" height="45" viewBox="0 0 105 45">
  <path fill="none" stroke="#040000" stroke-width="1.7" stroke-miterlimit="10" d="M29.567 10.043s2.064-1.651 5.368-1.238l37.99 6.503s6.916 1.446 6.297 9.601c-.619 8.156-6.4 9.808-6.4 9.808s-4.129 1.926-7.123 1.479l-36.132-8.292s-3.098-1.859-2.684-11.253c.001-.001.001-4.44 2.684-6.608z"/>
  <path fill="none" stroke="#040000" stroke-width="1.5" stroke-miterlimit="10" d="M29.567 10.043l35.719 6.091s4.438 1.211 5.472 4.271c1.032 3.059 2.993 4.917 2.993 4.917s4.027.516 5.472-.413"/>
  <path fill="none" stroke="#040000" stroke-width="1.5" stroke-miterlimit="10" d="M73.751 25.321s-2.106 3.911-2.891 5.369c-1.012 1.88-3.48 4.829-7.831 4.893"/>
  <path fill="#040000" d="M32.808 13.824c0 .684-.555 1.238-1.239 1.238-.685 0-1.239-.555-1.239-1.238 0-.685.554-1.238 1.239-1.238.683-.001 1.239.553 1.239 1.238"/>
  <path fill="#040000" d="M32.206 17.333c0 .685-.555 1.238-1.239 1.238-.685 0-1.239-.554-1.239-1.238 0-.684.554-1.239 1.239-1.239.684.001 1.239.556 1.239 1.239"/>
  <path fill="#040000" d="M32.206 21.261c0 .685-.555 1.238-1.239 1.238-.685 0-1.239-.554-1.239-1.238 0-.684.554-1.239 1.239-1.239.684 0 1.239.555 1.239 1.239"/>
  <path fill="#040000" d="M32.808 24.767c0 .684-.555 1.238-1.239 1.238-.685 0-1.239-.555-1.239-1.238 0-.685.554-1.239 1.239-1.239.683-.001 1.239.554 1.239 1.239"/>
  <path fill="#040000" d="M36.499 14.551c0 .684-.555 1.238-1.239 1.238s-1.239-.554-1.239-1.238.555-1.239 1.239-1.239c.683.001 1.239.555 1.239 1.239"/>
  <path fill="#040000" d="M35.896 18.061c0 .684-.554 1.238-1.239 1.238-.683 0-1.238-.555-1.238-1.238 0-.685.555-1.238 1.238-1.238.685 0 1.239.553 1.239 1.238"/>
  <path fill="#040000" d="M35.896 21.989c0 .684-.554 1.239-1.239 1.239-.683 0-1.238-.555-1.238-1.239 0-.685.555-1.239 1.238-1.239.685 0 1.239.554 1.239 1.239"/>
  <path fill="#040000" d="M36.499 25.494c0 .683-.555 1.238-1.239 1.238s-1.239-.556-1.239-1.238c0-.685.555-1.239 1.239-1.239.683 0 1.239.555 1.239 1.239"/>
  <path fill="#040000" d="M40.646 15.79c0 .685-.555 1.24-1.239 1.24-.685 0-1.239-.555-1.239-1.24 0-.684.554-1.238 1.239-1.238.684-.001 1.239.554 1.239 1.238"/>
  <path fill="#040000" d="M40.044 19.3c0 .684-.555 1.238-1.239 1.238-.685 0-1.24-.555-1.24-1.238 0-.685.555-1.239 1.24-1.239.684 0 1.239.554 1.239 1.239"/>
  <path fill="#040000" d="M40.044 23.228c0 .683-.555 1.239-1.239 1.239-.685 0-1.24-.557-1.24-1.239 0-.685.555-1.239 1.24-1.239.684 0 1.239.554 1.239 1.239"/>
  <path fill="#040000" d="M40.646 26.732c0 .685-.555 1.239-1.239 1.239-.685 0-1.239-.555-1.239-1.239s.554-1.238 1.239-1.238c.684 0 1.239.554 1.239 1.238"/>
  <path fill="#040000" d="M44.774 16.518c0 .684-.555 1.238-1.239 1.238s-1.239-.554-1.239-1.238c0-.685.555-1.239 1.239-1.239s1.239.554 1.239 1.239"/>
  <path fill="#040000" d="M44.172 20.027c0 .684-.554 1.239-1.238 1.239-.685 0-1.239-.555-1.239-1.239 0-.685.554-1.239 1.239-1.239.684 0 1.238.555 1.238 1.239"/>
  <path fill="#040000" d="M44.172 23.955c0 .684-.554 1.239-1.238 1.239-.685 0-1.239-.556-1.239-1.239 0-.685.554-1.24 1.239-1.24.684 0 1.238.556 1.238 1.24"/>
  <path fill="#040000" d="M44.774 27.46c0 .684-.555 1.239-1.239 1.239s-1.239-.556-1.239-1.239c0-.685.555-1.239 1.239-1.239s1.239.554 1.239 1.239"/>
  <path fill="#040000" d="M49.162 17.376c0 .684-.555 1.238-1.239 1.238-.685 0-1.24-.555-1.24-1.238 0-.685.555-1.239 1.24-1.239.684 0 1.239.554 1.239 1.239"/>
  <path fill="#040000" d="M48.56 20.886c0 .684-.555 1.239-1.239 1.239s-1.239-.555-1.239-1.239.555-1.239 1.239-1.239 1.239.555 1.239 1.239"/>
  <path fill="#040000" d="M48.56 24.813c0 .686-.555 1.24-1.239 1.24s-1.239-.555-1.239-1.24c0-.683.555-1.238 1.239-1.238.684-.001 1.239.555 1.239 1.238"/>
  <path fill="#040000" d="M49.162 28.318c0 .685-.555 1.239-1.239 1.239-.685 0-1.24-.555-1.24-1.239s.555-1.239 1.24-1.239c.684 0 1.239.556 1.239 1.239"/>
  <path fill="#040000" d="M52.853 18.103c0 .685-.555 1.24-1.239 1.24s-1.238-.555-1.238-1.24c0-.684.554-1.239 1.238-1.239s1.239.555 1.239 1.239"/>
  <path fill="#040000" d="M52.251 21.613c0 .684-.555 1.238-1.239 1.238s-1.239-.555-1.239-1.238c0-.685.555-1.239 1.239-1.239.684.001 1.239.554 1.239 1.239"/>
  <path fill="#040000" d="M52.251 25.54c0 .685-.555 1.239-1.239 1.239s-1.239-.555-1.239-1.239.555-1.238 1.239-1.238 1.239.554 1.239 1.238"/>
  <path fill="#040000" d="M52.853 29.046c0 .684-.555 1.238-1.239 1.238s-1.238-.555-1.238-1.238c0-.685.554-1.239 1.238-1.239s1.239.554 1.239 1.239"/>
  <path fill="#040000" d="M57 19.342c0 .684-.555 1.238-1.239 1.238s-1.238-.555-1.238-1.238c0-.685.555-1.24 1.238-1.24.684.001 1.239.555 1.239 1.24"/>
  <path fill="#040000" d="M56.397 22.852c0 .684-.554 1.239-1.237 1.239s-1.239-.555-1.239-1.239.556-1.239 1.239-1.239 1.237.555 1.237 1.239"/>
  <path fill="#040000" d="M56.397 26.779c0 .685-.554 1.238-1.237 1.238s-1.239-.554-1.239-1.238c0-.684.556-1.239 1.239-1.239s1.237.556 1.237 1.239"/>
  <path fill="#040000" d="M57 30.284c0 .685-.555 1.239-1.239 1.239s-1.238-.555-1.238-1.239c0-.683.555-1.238 1.238-1.238.684 0 1.239.556 1.239 1.238"/>
  <path fill="#040000" d="M61.128 19.647c0 .685-.555 1.238-1.238 1.238-.686 0-1.239-.554-1.239-1.238 0-.684.554-1.239 1.239-1.239.683 0 1.238.555 1.238 1.239"/>
  <path fill="#040000" d="M60.798 23.228c0 .683-.555 1.239-1.237 1.239-.686 0-1.239-.557-1.239-1.239 0-.685.554-1.239 1.239-1.239.682 0 1.237.554 1.237 1.239"/>
  <path fill="#040000" d="M60.526 27.507c0 .684-.555 1.238-1.238 1.238-.685 0-1.239-.555-1.239-1.238s.555-1.239 1.239-1.239 1.238.555 1.238 1.239"/>
  <path fill="#040000" d="M61.128 31.012c0 .685-.555 1.239-1.238 1.239-.686 0-1.239-.555-1.239-1.239s.554-1.239 1.239-1.239c.683-.001 1.238.555 1.238 1.239"/>
  <path fill="#040000" d="M65.508 20.539c0 .685-.556 1.238-1.24 1.238-.684 0-1.238-.554-1.238-1.238 0-.684.555-1.239 1.238-1.239.684 0 1.24.555 1.24 1.239"/>
  <path fill="#040000" d="M64.501 24.091c0 .684-.556 1.238-1.24 1.238-.684 0-1.238-.555-1.238-1.238s.555-1.239 1.238-1.239c.684 0 1.24.555 1.24 1.239"/>
  <path fill="#040000" d="M64.501 27.972c0 .684-.556 1.238-1.24 1.238-.684 0-1.238-.555-1.238-1.238 0-.685.555-1.239 1.238-1.239.684-.001 1.24.554 1.24 1.239"/>
  <path fill="#040000" d="M64.501 31.319c0 .684-.556 1.238-1.24 1.238-.684 0-1.238-.555-1.238-1.238s.555-1.238 1.238-1.238c.684 0 1.24.555 1.24 1.238"/>
  <path fill="#040000" d="M68.97 22.125c0 .684-.555 1.24-1.237 1.24-.686 0-1.239-.556-1.239-1.24s.554-1.239 1.239-1.239c.682 0 1.237.554 1.237 1.239"/>
  <path fill="#040000" d="M68.97 26.005c0 .685-.555 1.24-1.237 1.24-.686 0-1.239-.556-1.239-1.24 0-.684.554-1.238 1.239-1.238.682 0 1.237.554 1.237 1.238"/>
  <path fill="#040000" d="M67.838 29.558c0 .683-.555 1.238-1.238 1.238-.685 0-1.239-.556-1.239-1.238 0-.685.555-1.239 1.239-1.239.683-.001 1.238.554 1.238 1.239"/>
</svg>
