<svg xmlns="http://www.w3.org/2000/svg" width="104.999" height="45" viewBox="0 0 104.999 45">
  <g fill="none" stroke="#040000" stroke-width="1.3" stroke-miterlimit="10">
    <path d="M41.213 13.417V10.78s0-.719 2.397-.719h3.163s2.016-.047 2.591.431l.141-.767 1.102-1.581s.096-1.199 1.726-1.199h7.285s1.343-.047 1.678.815l1.103 1.486.911 1.15 1.821-.48h4.697s1.103-.047 1.149.863v1.438l.24.91 1.678.289v20.946s.433 3.835-2.491 3.931H32.872s-2.827-.145-2.684-3.451V13.417h11.025z"/>
    <circle cx="56.144" cy="24.564" r="10.737"/>
    <circle cx="56.144" cy="24.564" r="5.636"/>
    <path d="M41.213 13.417v24.82"/>
    <path d="M30.481 16.15s1.96 2.779 5.124 2.779c3.164 0 5.608-2.779 5.608-2.779"/>
    <path d="M48.21 10.493l15.1-.096"/>
    <path d="M63.31 10.397l.378 6.53"/>
    <path d="M49.505 9.726l-1.202 7.514"/>
    <path d="M41.213 13.417h7.691"/>
    <path d="M63.499 13.417l7.719-.289"/>
    <path d="M30.481 22.62h10.732"/>
  </g>
</svg>
