<svg xmlns="http://www.w3.org/2000/svg" xmlns:xlink="http://www.w3.org/1999/xlink" width="105" height="45" viewBox="0 0 105 45">
  <defs>
    <path id="a" d="M40.109 3.507h39v37.986h-39z"/>
  </defs>
  <clipPath id="b">
    <use xlink:href="#a" overflow="visible"/>
  </clipPath>
  <path clip-path="url(#b)" fill="none" stroke="#040000" stroke-width="1.8" stroke-miterlimit="10" d="M60.201 39.467H40.873V4.271h7.546l16.364 4.584v20.738"/>
  <path clip-path="url(#b)" fill="none" stroke="#040000" stroke-width="1.8" stroke-miterlimit="10" d="M48.419 4.271v35.195"/>
  <path clip-path="url(#b)" fill="none" stroke="#040000" stroke-miterlimit="10" d="M45.951 4.271v35.195"/>
  <path clip-path="url(#b)" fill="none" stroke="#040000" stroke-miterlimit="10" d="M43.201 4.271v35.195"/>
  <circle clip-path="url(#b)" fill="none" stroke="#040000" stroke-width="1.5" stroke-miterlimit="10" cx="62.973" cy="30.981" r="2.21"/>
  <circle clip-path="url(#b)" fill="none" stroke="#040000" stroke-width="1.5" stroke-miterlimit="10" cx="74.643" cy="30.981" r="2.21"/>
  <path clip-path="url(#b)" fill="none" stroke="#040000" stroke-width="1.8" stroke-miterlimit="10" d="M61.006 31.97s-2.313 5.427-1.324 7.731c0 0 1.081 1.317 2.492.518 0 0 1.034-.752 1.41-2.258.376-1.504 1.411-2.35 1.411-2.35l4.373-.095 2.54.047s1.41-.047 1.739 1.27c0 0 .893 3.009 1.786 3.433 0 0 1.882 1.459 2.633-.799 0 0 1.146-4.044-1.213-7.055"/>
  <path clip-path="url(#b)" fill="none" stroke="#040000" stroke-width="1.8" stroke-miterlimit="10" d="M64.783 29.594h8.18"/>
  <circle clip-path="url(#b)" fill="none" stroke="#040000" stroke-miterlimit="10" cx="65.666" cy="33.753" r="1.332"/>
  <circle clip-path="url(#b)" fill="none" stroke="#040000" stroke-miterlimit="10" cx="71.837" cy="33.753" r="1.332"/>
</svg>
