<svg xmlns="http://www.w3.org/2000/svg" width="105" height="45" viewBox="0 0 105 45">
  <g fill="none" stroke="#040000" stroke-miterlimit="10">
    <path stroke-width="1.6" d="M52.055 5.597c9.56.582 3.577 15.629 3.577 15.629s-3.16.299-5.654 2.644c-2.494 2.345-5.736 5.72-5.154 9.311 0 0-.415 5.422 4.739 6.834 5.154 1.414 9.81-2.992 9.81-2.992s3.658-3.56 3.741-8.265-1.413-5.812-1.413-5.812-.167-3.798.083-6.874c.249-3.076.166-9.145-3.991-10.475 0 0-4.406-3.159-7.981 2.411s-6.651 16.543-6.651 16.543-5.154 2.045-4.489 8.629 6.983 7.114 6.983 7.114 2.744 0 3.908-.28"/>
    <path stroke-width="1.6" d="M49.978 23.87s-3.983-1.566-6.817.682"/>
    <path stroke-width="1.6" d="M47.484 23.339l3.381-9.927s4.101-6.237 5.598-4.823"/>
    <path d="M47.484 12.83l3.154 1.247"/>
    <path d="M56.166 19.689l5.487 1.453"/>
    <path d="M51.643 40.291s-9.563-4.017-.334-13.162c0 0 2.565-2.826 7.602-1.496 5.035 1.33 3.646 6.214 3.646 6.214"/>
    <path d="M40.719 26.343s-2.598 11.151 6.573 12.578"/>
  </g>
</svg>
