<svg xmlns="http://www.w3.org/2000/svg" width="105" height="45.001" viewBox="0 0 105 45.001">
  <path fill="none" stroke="#040000" stroke-width="1.8" stroke-miterlimit="10" d="M37.189 41.141s-2.647.454-2.647-3.178V14.208s-.303-1.867-1.438-2.9v-6.33s.151-1.135 2.043-1.135h20.729s1.589 0 1.589 1.513v5.372s-1.286 1.891-1.286 3.177l-.115 24.209s.191 3.052-2.154 3.046l-16.721-.019z"/>
  <path fill="none" stroke="#040000" stroke-width="1.5" stroke-miterlimit="10" d="M52.091 38.092H38.682c-.687 0-1.245-.558-1.245-1.244V8.05c0-.688.558-1.245 1.245-1.245h13.409c.688 0 1.243.557 1.243 1.245v28.797c0 .687-.556 1.245-1.243 1.245z"/>
  <path fill="none" stroke="#040000" stroke-width="1.5" stroke-miterlimit="10" d="M40.697 13.72h9.377v9.377h-9.377z"/>
  <path fill="#040000" d="M48.441 31.337l-4.29-2.282v4.564z"/>
  <g fill="none" stroke="#040000" stroke-width="1.8" stroke-miterlimit="10">
    <path d="M71.143 40.282h-6.935c-.678 0-1.227-.549-1.227-1.227V5.305c0-.677.549-1.226 1.227-1.226h6.935c.678 0 1.226.549 1.226 1.226v33.75c-.001.678-.549 1.227-1.226 1.227z"/>
    <path d="M62.982 22.462h9.387"/>
  </g>
</svg>
