<svg xmlns="http://www.w3.org/2000/svg" width="105" height="45.001" viewBox="0 0 105 45.001">
  <path fill="none" stroke="#040000" stroke-width="1.8" stroke-miterlimit="10" d="M49.775 40.036H36.959c-.632 0-1.145-.512-1.145-1.143V6.053c0-.632.513-1.144 1.145-1.144h12.816c.632 0 1.145.512 1.145 1.144v32.841c0 .63-.513 1.142-1.145 1.142z"/>
  <path fill="none" stroke="#040000" stroke-miterlimit="10" d="M36.012 8.353h14.907"/>
  <path fill="none" stroke="#040000" stroke-miterlimit="10" d="M35.815 36.052h15.104"/>
  <path fill="none" stroke="#040000" stroke-width=".5" stroke-miterlimit="10" d="M41.399 6.434h3.936"/>
  <path fill="none" stroke="#040000" stroke-width="1.8" stroke-miterlimit="10" d="M69.075 40.091H56.259c-.633 0-1.145-.512-1.145-1.145V6.106c0-.632.512-1.143 1.145-1.143h12.816c.631 0 1.142.511 1.142 1.143v32.84c0 .633-.511 1.145-1.142 1.145z"/>
  <path fill="none" stroke="#040000" stroke-width="1.5" stroke-miterlimit="10" d="M60.354 17.503h-1.127c-.749 0-1.355-.605-1.355-1.354v-5.745c0-.747.606-1.354 1.355-1.354h1.127c.749 0 1.354.606 1.354 1.354v5.745c0 .748-.605 1.354-1.354 1.354z"/>
  <path fill="#040000" d="M59.468 7.253c0 .352-.286.637-.638.637-.353 0-.637-.285-.637-.637s.284-.638.637-.638c.352 0 .638.286.638.638"/>
  <path fill="#040000" d="M61.386 7.253c0 .352-.284.637-.637.637-.352 0-.638-.285-.638-.637s.286-.638.638-.638c.353 0 .637.286.637.638"/>
</svg>
