<svg xmlns="http://www.w3.org/2000/svg" width="105" height="45" viewBox="0 0 105 45">
  <g fill="none" stroke="#040000" stroke-width="2" stroke-miterlimit="10">
    <path d="M42.877 29.983H29.932c-.969 0-1.755-.785-1.755-1.754V6.779c0-.969.786-1.755 1.755-1.755h12.946c.97 0 1.756.786 1.756 1.755v21.45c-.001.969-.787 1.754-1.757 1.754z"/>
    <path d="M31.506 29.983h10.229v10.229H31.506z"/>
    <path d="M72.896 40.822H53.648c-1.443 0-2.609-1.15-2.609-2.566V6.891c0-1.417 1.166-2.565 2.609-2.565h19.248c1.442 0 2.609 1.148 2.609 2.565v31.364c0 1.416-1.167 2.567-2.609 2.567z"/>
  </g>
</svg>
